# Blender v2.82 (sub 7) OBJ File: ''
# www.blender.org
mtllib testmap3.mtl
o Plane_Plane.001
v -48.087883 15.000004 9.934020
v -48.087883 -0.000000 25.763084
v -48.087883 0.000001 9.934021
v 17.075878 15.000003 -66.211029
v 2.054289 -0.000000 -66.211021
v 17.075878 -0.000000 -66.211029
v 19.499935 15.000003 -29.996901
v 19.499935 0.000001 -38.666172
v 19.499935 0.000000 -29.996901
v 27.734406 15.000003 43.612846
v 27.734400 0.000001 54.724781
v 27.734406 0.000000 43.612846
v -63.296909 15.000004 9.934022
v -63.296909 0.000001 9.934023
v 19.499943 15.000003 15.586307
v 13.767025 0.000000 15.586309
v 19.499943 0.000000 15.586306
v -19.907858 15.000003 -70.589798
v -29.349951 0.000000 -70.589798
v -19.907858 0.000000 -70.589798
v 2.054289 15.000003 -66.211021
v 2.054292 0.000000 -52.593132
v 19.499939 15.000003 -7.205297
v 19.499939 0.000000 -7.205297
v -62.865387 15.000003 40.644272
v -48.087879 0.000000 40.644268
v -62.865387 0.000000 40.644272
v 43.631821 15.000004 -11.592124
v 60.681892 0.000001 -11.592127
v 43.631821 0.000001 -11.592125
v -63.296913 15.000004 -16.304871
v -48.087887 0.000001 -16.304871
v -63.296913 0.000001 -16.304869
v 59.177155 15.000003 40.884995
v 59.177151 -0.000000 25.068279
v 59.177155 0.000000 40.884998
v 38.123077 15.000003 54.724777
v 38.123077 0.000000 43.612843
v 38.123077 0.000001 54.724777
v -48.087887 15.000003 -3.993199
v -63.296913 0.000000 -3.993197
v -48.087887 0.000000 -3.993199
v 43.631813 15.000003 -52.593140
v 25.629906 0.000000 -52.593136
v 43.631813 0.000000 -52.593140
v 25.629906 15.000003 -52.593136
v 25.629904 -0.000000 -66.211029
v -24.800779 15.000004 -11.684374
v -24.800785 0.000000 -27.675884
v -24.800779 0.000001 -11.684374
v -17.912636 15.000003 17.350210
v -24.800777 0.000000 17.350212
v -17.912636 0.000000 17.350210
v 12.305091 15.000003 -27.675890
v 12.305090 0.000000 -29.996897
v 12.305091 0.000000 -27.675890
v -48.087894 15.000003 -46.837067
v -63.296921 0.000000 -46.837067
v -48.087894 0.000000 -46.837067
v -38.885410 15.000003 55.281612
v -38.885410 0.000000 43.612854
v -38.885410 0.000001 55.281612
v -63.296917 15.000003 -31.570969
v -63.296917 0.000000 -31.570967
v -48.087879 15.000003 55.281616
v -48.087879 0.000001 55.281616
v 60.419777 15.000003 -3.993215
v 43.631821 0.000000 -3.993213
v 60.419777 0.000000 -3.993216
v -48.087879 15.000003 40.644268
v 43.631824 15.000003 25.068281
v 43.631824 0.000001 9.518196
v 43.631824 -0.000000 25.068281
v 13.767025 15.000003 15.586308
v 13.767025 0.000001 24.655121
v 43.631824 15.000004 9.518197
v 60.419781 0.000001 9.518194
v 59.177151 15.000003 25.068279
v -48.087887 15.000004 -16.304871
v -10.465762 15.000003 -52.593132
v -10.465765 0.000000 -70.589806
v -10.465762 0.000000 -52.593132
v -48.087894 15.000003 -52.593124
v -48.087894 0.000000 -52.593124
v 43.631828 15.000003 40.884998
v 43.631828 0.000000 40.884998
v 27.734400 15.000003 54.724781
v 43.631817 15.000003 -41.011177
v 43.631817 0.000001 -41.011177
v -38.885410 15.000003 43.612854
v 60.681889 15.000003 -41.011181
v 60.681889 0.000001 -41.011181
v 3.028622 15.000003 -27.675890
v 3.028622 0.000000 -27.675888
v 43.631828 15.000003 43.612843
v 43.631828 0.000000 43.612843
v -29.349949 15.000003 -52.593128
v -29.349949 0.000000 -52.593128
v 2.054292 15.000003 -52.593132
v 60.681889 15.000003 -26.301653
v 60.681889 0.000000 -26.301653
v -63.296913 15.000003 -3.993196
v -48.087883 15.000003 25.763084
v -62.865383 -0.000000 25.763084
v -62.865383 15.000003 25.763084
v 38.123077 15.000003 43.612843
v 13.767025 15.000003 24.655119
v -17.912636 0.000001 24.655117
v -17.912636 15.000003 24.655117
v -29.349951 15.000003 -70.589798
v 43.631821 15.000003 -3.993213
v 12.305090 15.000003 -29.996897
v 19.499935 15.000004 -38.666172
v -24.800785 0.000001 -38.666172
v 12.305090 15.000004 -38.666172
v -24.800785 15.000004 -38.666176
v -24.800785 0.000000 -27.675884
v 60.419781 15.000004 9.518195
v -24.800785 15.000003 -27.675886
v -15.524315 0.000000 -27.675886
v -15.524315 15.000003 -27.675886
v -6.247847 0.000000 -27.675888
v -6.247847 15.000003 -27.675888
v 3.028622 0.000001 -38.666176
v -6.247847 0.000001 -38.666176
v -15.524315 0.000001 -38.666172
v 25.629904 15.000003 -66.211029
v 17.075878 -0.000001 -52.593136
v -10.465765 15.000003 -70.589806
v -19.907856 -0.000000 -61.591469
v -19.907858 15.000002 -52.593136
v -19.907858 -0.000001 -52.593136
v -19.907856 15.000003 -61.591469
v -10.465763 -0.000000 -61.591473
v -19.907858 15.000003 -52.593128
v -10.465763 -0.000001 -52.593132
v -19.907858 -0.000001 -52.593128
v -29.349951 -0.000001 -52.593140
v -19.907858 15.000002 -52.593140
v -19.907858 -0.000001 -52.593140
v -63.296921 15.000003 -46.837067
v 60.681892 15.000004 -11.592126
v 43.631824 0.000000 -26.301653
v -48.087887 0.000000 -31.570967
v 30.782726 15.000003 -7.205297
v 30.782726 0.000000 -7.205297
v 30.782730 0.000000 15.586306
v -36.736362 15.000004 -11.684374
v -36.736362 0.000001 -11.684374
v -36.736366 0.000000 -27.675884
v -36.736366 15.000003 -27.675886
v -24.800777 15.000003 17.350210
v -36.736359 0.000000 17.350212
v 30.782730 15.000003 15.586307
v 30.782722 0.000000 -29.996901
v 30.782722 15.000003 -29.996901
v -36.736359 15.000003 17.350210
v -24.800779 15.000004 -11.684374
v -36.736362 0.000001 -11.684374
v -36.736362 15.000004 -11.684374
v 30.782726 15.000003 -7.205297
v 19.499939 0.000000 -7.205297
v 19.499939 15.000003 -7.205297
v 17.075878 -0.000001 -52.593136
v 17.075878 15.000003 -66.211029
v 17.075878 -0.000000 -66.211029
v -10.465763 -0.000000 -61.591473
v -19.907856 15.000003 -61.591469
v -19.907856 -0.000000 -61.591469
v 12.305090 0.000001 -38.666172
v -24.800785 15.000002 -27.675886
v 3.028622 15.000005 -38.666176
v -6.247847 15.000005 -38.666176
v -15.524315 15.000005 -38.666172
v 17.075878 15.000003 -52.593136
v -10.465763 15.000003 -61.591473
v -10.465763 15.000003 -52.593132
v -29.349951 15.000002 -52.593140
v 43.631824 15.000003 -26.301653
v -48.087887 15.000003 -31.570969
v -24.800779 0.000001 -11.684374
v 30.782726 0.000000 -7.205297
v 17.075878 15.000003 -52.593136
v -10.465763 15.000003 -61.591473
v 60.681889 15.000003 -26.301653
v 60.681889 0.000000 -26.301653
v 43.631824 0.000000 -26.301653
v -63.296917 15.000003 -31.570969
v -63.296917 0.000000 -31.570967
v -48.087887 0.000000 -31.570967
v 43.631824 15.000003 -26.301653
v -48.087887 15.000003 -31.570969
v 12.305090 0.000000 -29.996897
v 12.305090 15.000003 -29.996897
v 12.305090 15.000004 -38.666172
v 3.028622 15.000003 -27.675890
v 3.028622 0.000000 -27.675888
v 3.028622 0.000001 -38.666176
v -6.247847 15.000003 -27.675888
v -6.247847 0.000000 -27.675888
v -6.247847 0.000001 -38.666176
v -15.524315 15.000003 -27.675886
v -15.524315 0.000000 -27.675886
v -15.524315 0.000001 -38.666172
v 12.305090 0.000001 -38.666172
v 3.028622 15.000005 -38.666176
v -6.247847 15.000005 -38.666176
v -15.524315 15.000005 -38.666172
vt 0.831962 0.638580
vt 0.824805 0.752974
vt 0.831962 0.638580
vt 0.391302 0.051482
vt 0.482983 0.054756
vt 0.391302 0.051482
vt 0.295403 0.329374
vt 0.295403 0.329374
vt 0.295403 0.329374
vt 0.298140 0.899458
vt 0.293552 0.972299
vt 0.298140 0.899458
vt 0.939909 0.638580
vt 0.939909 0.638580
vt 0.296340 0.717124
vt 0.374724 0.721177
vt 0.296340 0.717124
vt 0.624201 0.025292
vt 0.695919 0.022018
vt 0.624201 0.025292
vt 0.482983 0.054756
vt 0.478546 0.155152
vt 0.295871 0.523249
vt 0.295872 0.523249
vt 0.928628 0.872475
vt 0.821232 0.872628
vt 0.928628 0.872475
vt 0.187014 0.468532
vt 0.052674 0.478165
vt 0.187014 0.468532
vt 0.944345 0.437788
vt 0.821611 0.443245
vt 0.944345 0.437788
vt 0.060501 0.862915
vt 0.063661 0.749454
vt 0.060501 0.862915
vt 0.215718 0.972221
vt 0.214384 0.898280
vt 0.215718 0.972221
vt 0.824568 0.523998
vt 0.939909 0.522907
vt 0.824568 0.523998
vt 0.172450 0.156243
vt 0.304057 0.152969
vt 0.172450 0.156243
vt 0.304057 0.152969
vt 0.299621 0.048208
vt 0.703595 0.535498
vt 0.704284 0.351228
vt 0.703595 0.535498
vt 0.628783 0.721256
vt 0.702906 0.719769
vt 0.628783 0.721256
vt 0.366644 0.351596
vt 0.366712 0.330862
vt 0.366644 0.351596
vt 0.829004 0.190072
vt 0.947302 0.199893
vt 0.829004 0.190072
vt 0.745964 0.979161
vt 0.743489 0.897187
vt 0.745964 0.979161
vt 0.945823 0.318841
vt 0.945824 0.318841
vt 0.819711 0.982010
vt 0.819711 0.982010
vt 0.058897 0.515906
vt 0.175006 0.522046
vt 0.058897 0.515906
vt 0.821232 0.872628
vt 0.173298 0.744246
vt 0.173428 0.633253
vt 0.173298 0.744246
vt 0.374724 0.721177
vt 0.377464 0.776621
vt 0.173428 0.633253
vt 0.057105 0.635406
vt 0.063661 0.749454
vt 0.821611 0.443245
vt 0.559876 0.159517
vt 0.552483 0.028565
vt 0.559876 0.159517
vt 0.833440 0.152969
vt 0.833440 0.152969
vt 0.174280 0.867809
vt 0.174280 0.867809
vt 0.293552 0.972299
vt 0.170971 0.240270
vt 0.170971 0.240270
vt 0.743489 0.897187
vt 0.057110 0.241361
vt 0.057110 0.241361
vt 0.451054 0.351504
vt 0.451054 0.351504
vt 0.172520 0.895262
vt 0.172520 0.895262
vt 0.697398 0.151878
vt 0.697398 0.151878
vt 0.478546 0.155152
vt 0.054892 0.359763
vt 0.054892 0.359763
vt 0.939909 0.522907
vt 0.824805 0.752974
vt 0.936318 0.750798
vt 0.936318 0.750798
vt 0.214384 0.898280
vt 0.377464 0.776621
vt 0.624930 0.777098
vt 0.624930 0.777098
vt 0.695919 0.022018
vt 0.175006 0.522046
vt 0.366712 0.330862
vt 0.295403 0.329374
vt 0.295403 0.329374
vt 0.366712 0.330862
vt 0.295403 0.329374
vt 0.295403 0.329374
vt 0.057105 0.635406
vt 0.704284 0.351228
vt 0.619874 0.351320
vt 0.619874 0.351320
vt 0.535464 0.351412
vt 0.535464 0.351412
vt 0.451054 0.351504
vt 0.535464 0.351412
vt 0.619874 0.351320
vt 0.299621 0.048208
vt 0.391302 0.051482
vt 0.552483 0.028565
vt 0.624201 0.025292
vt 0.624201 0.025292
vt 0.624201 0.025292
vt 0.624201 0.025291
vt 0.624201 0.025292
vt 0.624201 0.025291
vt 0.624201 0.025292
vt 0.624201 0.025292
vt 0.695919 0.022018
vt 0.624201 0.025292
vt 0.624201 0.025292
vt 0.947302 0.199893
vt 0.052674 0.478165
vt 0.054892 0.359763
vt 0.945824 0.318841
vt 0.295871 0.523249
vt 0.295871 0.523249
vt 0.296340 0.717124
vt 0.703595 0.535498
vt 0.703595 0.535498
vt 0.704284 0.351228
vt 0.704284 0.351228
vt 0.702906 0.719769
vt 0.702906 0.719769
vt 0.296340 0.717124
vt 0.295403 0.329374
vt 0.295403 0.329374
vt 0.702906 0.719769
vt 0.703595 0.535498
vt 0.703595 0.535498
vt 0.703595 0.535498
vt 0.295871 0.523249
vt 0.295872 0.523249
vt 0.295871 0.523249
vt 0.391302 0.051482
vt 0.391302 0.051482
vt 0.391302 0.051482
vt 0.624201 0.025292
vt 0.624201 0.025291
vt 0.624201 0.025292
vt 0.366712 0.330862
vt 0.295403 0.329374
vt 0.451054 0.351504
vt 0.535464 0.351412
vt 0.619874 0.351320
vt 0.391302 0.051482
vt 0.624201 0.025291
vt 0.624201 0.025291
vt 0.695919 0.022018
vt 0.054892 0.359763
vt 0.945823 0.318841
vt 0.703595 0.535498
vt 0.295871 0.523249
vt 0.391302 0.051482
vt 0.624201 0.025291
vt 0.054892 0.359763
vt 0.054892 0.359763
vt 0.054892 0.359763
vt 0.945823 0.318841
vt 0.945824 0.318841
vt 0.945824 0.318841
vt 0.054892 0.359763
vt 0.945823 0.318841
vt 0.366712 0.330862
vt 0.366712 0.330862
vt 0.366712 0.330862
vt 0.451054 0.351504
vt 0.451054 0.351504
vt 0.451054 0.351504
vt 0.535464 0.351412
vt 0.535464 0.351412
vt 0.535464 0.351412
vt 0.619874 0.351320
vt 0.619874 0.351320
vt 0.619874 0.351320
vt 0.366712 0.330862
vt 0.451054 0.351504
vt 0.535464 0.351412
vt 0.619874 0.351320
vn 1.0000 0.0000 0.0000
vn 0.0000 0.0000 1.0000
vn -1.0000 0.0000 0.0000
vn -0.0000 -0.0000 -1.0000
vn -0.0000 1.0000 0.0000
usemtl None.004
s 1
f 1/1/1 2/2/1 3/3/1
f 4/4/2 5/5/2 6/6/2
f 7/7/3 8/8/3 9/9/3
f 10/10/1 11/11/1 12/12/1
f 13/13/4 3/3/4 14/14/4
f 15/15/2 16/16/2 17/17/2
f 18/18/2 19/19/2 20/20/2
f 21/21/1 22/22/1 5/5/1
f 23/23/1 17/17/1 24/24/1
f 25/25/4 26/26/4 27/27/4
f 28/28/4 29/29/4 30/30/4
f 31/31/4 32/32/4 33/33/4
f 34/34/3 35/35/3 36/36/3
f 37/37/3 38/38/3 39/39/3
f 40/40/2 41/41/2 42/42/2
f 43/43/2 44/44/2 45/45/2
f 46/46/3 47/47/3 44/44/3
f 48/48/3 49/49/3 50/50/3
f 51/51/2 52/52/2 53/53/2
f 54/54/3 55/55/3 56/56/3
f 57/57/2 58/58/2 59/59/2
f 60/60/3 61/61/3 62/62/3
f 63/63/1 33/33/1 64/64/1
f 65/65/4 62/62/4 66/66/4
f 67/67/2 68/68/2 69/69/2
f 70/70/1 66/66/1 26/26/1
f 71/71/3 72/72/3 73/73/3
f 74/74/1 75/75/1 16/16/1
f 76/76/4 77/77/4 72/72/4
f 78/78/2 73/73/2 35/35/2
f 79/79/1 42/42/1 32/32/1
f 80/80/3 81/81/3 82/82/3
f 83/83/1 59/59/1 84/84/1
f 85/85/4 36/36/4 86/86/4
f 87/87/4 39/39/4 11/11/4
f 88/88/3 45/45/3 89/89/3
f 90/90/4 12/12/4 61/61/4
f 91/91/2 89/89/2 92/92/2
f 93/93/4 56/56/4 94/94/4
f 95/95/3 86/86/3 96/96/3
f 97/97/2 84/84/2 98/98/2
f 99/99/2 82/82/2 22/22/2
f 100/100/3 92/92/3 101/101/3
f 102/102/1 14/14/1 41/41/1
f 103/103/2 104/104/2 2/2/2
f 105/105/1 27/27/1 104/104/1
f 106/106/4 96/96/4 38/38/4
f 107/107/2 108/108/2 75/75/2
f 59/59/5 64/64/5 32/32/5
f 109/109/3 53/53/3 108/108/3
f 110/110/1 98/98/1 19/19/1
f 82/82/5 81/81/5 20/20/5
f 111/111/3 30/30/3 68/68/3
f 112/112/4 9/9/4 55/55/4
f 113/113/2 114/114/2 8/8/2
f 55/55/1 115/115/1 112/112/1
f 116/116/1 117/117/1 114/114/1
f 118/118/3 69/69/3 77/77/3
f 119/119/4 120/120/4 49/49/4
f 121/121/4 122/122/4 120/120/4
f 123/123/4 94/94/4 122/122/4
f 93/93/3 124/124/3 94/94/3
f 123/123/3 125/125/3 122/122/3
f 121/121/3 126/126/3 120/120/3
f 127/127/2 6/6/2 47/47/2
f 4/4/1 128/128/1 6/6/1
f 129/129/2 20/20/2 81/81/2
f 130/130/1 131/131/1 132/132/1
f 18/18/1 130/130/1 20/20/1
f 133/133/4 134/134/4 130/130/4
f 135/135/4 136/136/4 137/137/4
f 138/138/4 139/139/4 140/140/4
f 141/141/1 64/64/1 58/58/1
f 142/142/3 101/101/3 29/29/3
f 100/100/2 143/143/2 101/101/2
f 63/63/4 144/144/4 64/64/4
f 145/145/3 146/146/3 147/147/3
f 148/148/1 149/149/1 150/150/1
f 49/49/2 119/119/2 151/151/2
f 152/152/4 52/52/4 153/153/4
f 15/15/4 154/154/4 147/147/4
f 7/7/2 9/9/2 155/155/2
f 156/156/3 155/155/3 146/146/3
f 157/157/1 153/153/1 149/149/1
f 152/152/3 50/50/3 52/52/3
f 7/7/1 24/24/1 9/9/1
f 149/149/2 48/48/2 148/148/2
f 24/24/2 145/145/2 23/23/2
f 158/158/4 159/159/4 160/160/4
f 161/161/4 162/162/4 163/163/4
f 164/164/3 165/165/3 166/166/3
f 167/167/2 168/168/2 169/169/2
f 1/1/1 103/103/1 2/2/1
f 4/4/2 21/21/2 5/5/2
f 7/7/3 113/113/3 8/8/3
f 10/10/1 87/87/1 11/11/1
f 13/13/4 1/1/4 3/3/4
f 15/15/2 74/74/2 16/16/2
f 18/18/2 110/110/2 19/19/2
f 21/21/1 99/99/1 22/22/1
f 23/23/1 15/15/1 17/17/1
f 25/25/4 70/70/4 26/26/4
f 28/28/4 142/142/4 29/29/4
f 31/31/4 79/79/4 32/32/4
f 34/34/3 78/78/3 35/35/3
f 37/37/3 106/106/3 38/38/3
f 40/40/2 102/102/2 41/41/2
f 43/43/2 46/46/2 44/44/2
f 46/46/3 127/127/3 47/47/3
f 48/48/3 119/119/3 49/49/3
f 51/51/2 152/152/2 52/52/2
f 54/54/3 112/112/3 55/55/3
f 57/57/2 141/141/2 58/58/2
f 60/60/3 90/90/3 61/61/3
f 63/63/1 31/31/1 33/33/1
f 65/65/4 60/60/4 62/62/4
f 67/67/2 111/111/2 68/68/2
f 70/70/1 65/65/1 66/66/1
f 71/71/3 76/76/3 72/72/3
f 74/74/1 107/107/1 75/75/1
f 76/76/4 118/118/4 77/77/4
f 78/78/2 71/71/2 73/73/2
f 79/79/1 40/40/1 42/42/1
f 80/80/3 129/129/3 81/81/3
f 83/83/1 57/57/1 59/59/1
f 85/85/4 34/34/4 36/36/4
f 87/87/4 37/37/4 39/39/4
f 88/88/3 43/43/3 45/45/3
f 90/90/4 10/10/4 12/12/4
f 91/91/2 88/88/2 89/89/2
f 93/93/4 54/54/4 56/56/4
f 95/95/3 85/85/3 86/86/3
f 97/97/2 83/83/2 84/84/2
f 99/99/2 80/80/2 82/82/2
f 100/100/3 91/91/3 92/92/3
f 102/102/1 13/13/1 14/14/1
f 103/103/2 105/105/2 104/104/2
f 105/105/1 25/25/1 27/27/1
f 106/106/4 95/95/4 96/96/4
f 107/107/2 109/109/2 108/108/2
f 72/72/5 77/77/5 69/69/5
f 72/72/5 69/69/5 68/68/5
f 36/36/5 35/35/5 73/73/5
f 72/72/5 68/68/5 24/24/5
f 68/68/5 30/30/5 24/24/5
f 72/72/5 17/17/5 73/73/5
f 86/86/5 36/36/5 73/73/5
f 17/17/5 72/72/5 24/24/5
f 73/73/5 17/17/5 75/75/5
f 38/38/5 96/96/5 86/86/5
f 86/86/5 73/73/5 38/38/5
f 38/38/5 73/73/5 12/12/5
f 11/11/5 39/39/5 38/38/5
f 30/30/5 29/29/5 101/101/5
f 101/101/5 92/92/5 89/89/5
f 89/89/5 9/9/5 30/30/5
f 9/9/5 24/24/5 30/30/5
f 17/17/5 16/16/5 75/75/5
f 30/30/5 101/101/5 89/89/5
f 11/11/5 38/38/5 12/12/5
f 12/12/5 73/73/5 75/75/5
f 66/66/5 62/62/5 61/61/5
f 104/104/5 27/27/5 26/26/5
f 26/26/5 66/66/5 61/61/5
f 108/108/5 53/53/5 52/52/5
f 12/12/5 75/75/5 108/108/5
f 26/26/5 61/61/5 2/2/5
f 61/61/5 12/12/5 108/108/5
f 2/2/5 104/104/5 26/26/5
f 41/41/5 14/14/5 3/3/5
f 61/61/5 108/108/5 52/52/5
f 2/2/5 61/61/5 52/52/5
f 42/42/5 41/41/5 3/3/5
f 52/52/5 50/50/5 42/42/5
f 50/50/5 49/49/5 32/32/5
f 32/32/5 42/42/5 50/50/5
f 42/42/5 3/3/5 52/52/5
f 3/3/5 2/2/5 52/52/5
f 49/49/5 98/98/5 59/59/5
f 98/98/5 84/84/5 59/59/5
f 59/59/5 58/58/5 64/64/5
f 64/64/5 33/33/5 32/32/5
f 49/49/5 59/59/5 32/32/5
f 109/109/3 51/51/3 53/53/3
f 110/110/1 97/97/1 98/98/1
f 9/9/5 89/89/5 44/44/5
f 89/89/5 45/45/5 44/44/5
f 44/44/5 47/47/5 6/6/5
f 94/94/5 56/56/5 55/55/5
f 55/55/5 9/9/5 44/44/5
f 44/44/5 6/6/5 22/22/5
f 6/6/5 5/5/5 22/22/5
f 94/94/5 55/55/5 22/22/5
f 55/55/5 44/44/5 22/22/5
f 49/49/5 120/120/5 98/98/5
f 120/120/5 122/122/5 82/82/5
f 22/22/5 122/122/5 94/94/5
f 22/22/5 82/82/5 122/122/5
f 120/120/5 82/82/5 98/98/5
f 19/19/5 98/98/5 20/20/5
f 20/20/5 98/98/5 82/82/5
f 111/111/3 28/28/3 30/30/3
f 112/112/4 7/7/4 9/9/4
f 113/113/2 116/116/2 114/114/2
f 55/55/1 170/170/1 115/115/1
f 116/116/1 171/171/1 117/117/1
f 118/118/3 67/67/3 69/69/3
f 119/119/4 121/121/4 120/120/4
f 121/121/4 123/123/4 122/122/4
f 123/123/4 93/93/4 94/94/4
f 93/93/3 172/172/3 124/124/3
f 123/123/3 173/173/3 125/125/3
f 121/121/3 174/174/3 126/126/3
f 127/127/2 4/4/2 6/6/2
f 4/4/1 175/175/1 128/128/1
f 129/129/2 18/18/2 20/20/2
f 130/130/1 133/133/1 131/131/1
f 18/18/1 133/133/1 130/130/1
f 133/133/4 176/176/4 134/134/4
f 135/135/4 177/177/4 136/136/4
f 138/138/4 178/178/4 139/139/4
f 141/141/1 63/63/1 64/64/1
f 142/142/3 100/100/3 101/101/3
f 100/100/2 179/179/2 143/143/2
f 63/63/4 180/180/4 144/144/4
f 145/145/3 147/147/3 154/154/3
f 148/148/1 150/150/1 151/151/1
f 49/49/2 151/151/2 150/150/2
f 152/152/4 153/153/4 157/157/4
f 15/15/4 147/147/4 17/17/4
f 7/7/2 155/155/2 156/156/2
f 156/156/3 146/146/3 145/145/3
f 157/157/1 149/149/1 148/148/1
f 152/152/3 48/48/3 50/50/3
f 7/7/1 23/23/1 24/24/1
f 149/149/2 50/50/2 48/48/2
f 24/24/2 146/146/2 145/145/2
f 158/158/4 181/181/4 159/159/4
f 161/161/4 182/182/4 162/162/4
f 164/164/3 183/183/3 165/165/3
f 167/167/2 184/184/2 168/168/2
f 185/185/4 186/186/4 187/187/4
f 188/188/2 189/189/2 190/190/2
f 185/185/4 187/187/4 191/191/4
f 188/188/2 190/190/2 192/192/2
f 193/193/3 194/194/3 195/195/3
f 196/196/1 197/197/1 198/198/1
f 199/199/1 200/200/1 201/201/1
f 202/202/1 203/203/1 204/204/1
f 193/193/3 195/195/3 205/205/3
f 196/196/1 198/198/1 206/206/1
f 199/199/1 201/201/1 207/207/1
f 202/202/1 204/204/1 208/208/1
