# Blender v2.82 (sub 7) OBJ File: ''
# www.blender.org
mtllib testmap2.mtl
o Plane.002
v 43.549820 -0.000002 -23.762791
v 60.422516 0.000000 -10.298193
v 60.422516 -0.000002 -23.762794
v 0.572800 14.999994 36.604115
v 0.572802 0.000006 55.281612
v 0.572800 0.000005 36.604115
v -47.151745 0.000002 19.893215
v -63.680634 14.999993 19.893215
v -63.680634 0.000002 19.893215
v 19.739042 0.000006 55.281612
v 19.739042 14.999994 36.604115
v 19.739042 0.000004 36.604115
v 60.422516 14.999990 -23.762794
v 43.549820 14.999990 -23.762794
v 43.549820 0.000000 -10.298191
v 60.422516 14.999990 -10.298195
v 43.549828 0.000002 19.655510
v 43.549820 14.999990 5.654606
v 43.549820 -0.000000 5.654608
v 43.549828 14.999994 46.383507
v 34.395760 0.000004 46.383507
v 34.395760 14.999994 46.383507
v 58.557251 0.000002 19.655506
v 43.549828 0.000004 33.048016
v 58.557251 0.000006 33.048016
v 22.969130 -0.000004 -51.093590
v 22.969130 14.999982 -70.589798
v 22.969130 -0.000006 -70.589798
v 43.549812 -0.000004 -51.093590
v 38.633575 14.999987 -51.093597
v 38.633575 -0.000004 -51.093597
v -63.296906 -0.000002 -30.088531
v -47.296108 14.999986 -30.088531
v -63.296906 14.999986 -30.088531
v -63.296898 -0.000001 -16.320282
v -47.296108 14.999991 -16.320288
v -47.296108 -0.000001 -16.320282
v 19.499945 14.999990 15.586310
v 19.499937 -0.000003 -33.184589
v 19.499937 14.999985 -33.184589
v -47.296108 -0.000004 -43.856781
v -63.296906 14.999987 -43.856781
v -63.296906 -0.000004 -43.856781
v -18.593443 14.999994 36.604115
v -33.734966 0.000004 36.604115
v -33.734966 14.999994 36.604115
v 0.572802 14.999993 55.281612
v 0.572802 0.000006 55.281612
v -17.912636 14.999990 17.350210
v -17.912636 0.000002 22.514812
v -17.912636 14.999995 22.514812
v 43.549812 -0.000002 -37.227390
v -24.791719 -0.000002 -31.884285
v -16.613182 14.999986 -31.884285
v -16.613182 -0.000002 -31.884285
v 58.557251 14.999993 19.655506
v 58.557251 14.999998 33.048008
v -63.680634 0.000004 33.577522
v -47.079552 14.999994 33.577522
v -47.079552 0.000004 33.577522
v 13.767025 0.000002 22.514812
v -29.217772 -0.000004 -51.093582
v -36.668861 14.999987 -51.093582
v -36.668861 -0.000004 -51.093582
v -36.668861 14.999986 -65.701675
v -36.668861 -0.000006 -65.701675
v 28.299852 -0.000004 -51.093597
v 28.299852 14.999988 -64.448792
v 28.299852 14.999987 -51.093597
v -63.296906 -0.000002 -30.088531
v -63.296898 14.999991 -16.320284
v 43.549812 14.999987 -51.093590
v -47.296108 14.999986 -65.701675
v -47.296108 14.999987 -43.856781
v 43.549820 0.000000 -6.890593
v 43.549820 14.999990 -10.298193
v 60.422516 14.999990 -23.762794
v 43.549812 14.999987 -37.227394
v -63.457062 -0.000000 5.653118
v -47.296108 0.000000 -7.210783
v -63.457062 0.000000 -7.210781
v -33.734966 0.000004 46.383522
v 13.767025 14.999990 15.586310
v 13.767025 0.000002 15.586309
v -17.912636 0.000002 17.350210
v -24.802336 14.999990 17.350210
v -24.802336 0.000002 17.350210
v 0.572802 14.999993 55.281612
v -18.593441 0.000006 55.281612
v -18.593441 14.999993 55.281612
v -63.457062 14.999990 -7.210782
v 34.395760 14.999994 36.604115
v 34.395760 0.000004 36.604115
v -47.187836 14.999990 5.653112
v -47.187836 -0.000000 5.653118
v -63.457062 14.999990 5.653117
v 60.681900 0.000000 -6.890594
v -47.296108 -0.000002 -30.088531
v -47.079552 14.999994 46.383522
v 43.549820 14.999990 -6.890593
v -47.180614 14.999990 8.501134
v -47.180614 -0.000000 8.501137
v 60.422516 -0.000002 -23.762794
v 19.739042 14.999993 55.281612
v -63.680634 14.999994 33.577522
v -18.593443 0.000004 36.604115
v -63.296906 14.999986 -30.088531
v 38.633575 14.999988 -64.448792
v 38.633575 -0.000005 -64.448792
v -16.613182 14.999987 -38.525581
v -16.613182 -0.000002 -38.525581
v 19.499945 0.000002 15.586309
v 60.422516 -0.000002 -37.227394
v 43.549828 0.000004 46.383507
v 43.549828 14.999994 33.048016
v 60.681900 14.999990 5.654608
v 60.681900 -0.000000 5.654610
v 22.969130 14.999987 -51.093597
v -47.296108 14.999990 -7.210783
v 14.511463 14.999987 -38.525589
v 14.511463 -0.000002 -38.525581
v 14.511467 -0.000003 -33.184589
v 60.422516 14.999987 -37.227394
v -29.217772 14.999982 -70.589798
v -29.217772 -0.000006 -70.589798
v -47.079552 0.000004 46.383522
v -33.734966 14.999994 46.383514
v -47.296108 -0.000006 -65.701675
v 60.681900 14.999990 -6.890594
v 14.511467 14.999985 -33.184589
v 28.299852 -0.000005 -64.448792
v -29.217772 14.999987 -51.093590
v -47.151745 14.999993 19.893215
v -24.791719 14.999986 -31.884285
v 43.549828 14.999993 19.655506
v -47.158962 0.000002 17.045197
v -63.680637 14.999990 17.045197
v -47.158962 14.999990 17.045197
v -63.687855 0.000001 8.501137
v -63.680634 0.000001 17.045197
v -63.687851 14.999990 8.501134
v 28.366545 14.999990 15.586310
v 28.366537 -0.000003 -33.184589
v 13.767025 14.999995 22.514812
v 28.366545 0.000002 15.586309
v 28.366537 14.999985 -33.184589
v 19.499941 14.999989 -9.648993
v 19.499941 -0.000002 -9.648993
v 28.366545 -0.000002 -9.648994
v 28.366545 14.999989 -9.648994
v 28.366545 14.999990 15.586310
v 28.366537 -0.000003 -33.184589
v 28.366537 14.999985 -33.184589
v 28.366545 0.000002 15.586309
v 19.499941 14.999989 -9.648993
v 28.366545 -0.000002 -9.648994
v 19.499941 -0.000002 -9.648993
v 28.366545 14.999989 -9.648994
v -35.879486 0.000002 17.350218
v -35.868870 14.999986 -31.884285
v -35.868870 -0.000002 -31.884281
v -35.879486 14.999990 17.350210
v -35.868870 -0.000002 -31.884281
v -24.794613 14.999986 -31.884285
v -24.794613 -0.000002 -31.884285
v -24.802336 0.000002 17.350210
v -35.879486 14.999990 17.350210
v -35.879486 0.000002 17.350218
v -35.868870 14.999986 -31.884285
v -24.802336 14.999990 17.350210
v -35.868866 -0.000001 2.919312
v -24.794613 14.999987 2.919308
v -24.794613 -0.000001 2.919310
v -35.868866 14.999987 2.919308
v -35.868866 -0.000001 2.919312
v -24.794613 -0.000001 2.919310
v -24.794613 14.999987 2.919308
v -35.868866 14.999987 2.919308
v -35.868866 -0.000002 -14.214863
v -24.794613 14.999988 -14.214866
v -24.794613 -0.000002 -14.214865
v -35.868866 14.999988 -14.214864
v -35.868866 -0.000002 -14.214863
v -24.794613 -0.000002 -14.214865
v -24.794613 14.999988 -14.214866
v -35.868866 14.999988 -14.214864
vt 0.000000 0.062500
vt 0.000000 0.071429
vt 0.000000 0.065476
vt 0.912500 1.000000
vt 0.916667 1.000000
vt 0.912500 1.000000
vt 1.000000 0.962963
vt 1.000000 0.981481
vt 1.000000 0.981481
vt 0.900000 1.000000
vt 0.875000 1.000000
vt 0.875000 1.000000
vt 0.000000 0.059524
vt 0.000000 0.062500
vt 0.000000 0.089286
vt 0.000000 0.071429
vt 0.000000 0.428571
vt 0.000000 0.285714
vt 0.000000 0.285714
vt 0.000000 1.000000
vt 0.125000 1.000000
vt 0.125000 1.000000
vt 0.000000 0.571429
vt 0.000000 0.857143
vt 0.000000 0.714286
vt 0.625000 0.000000
vt 0.750000 0.000000
vt 0.750000 0.000000
vt 0.000000 0.000000
vt 0.125000 0.000000
vt 0.125000 0.000000
vt 1.000000 0.592593
vt 1.000000 0.611111
vt 1.000000 0.592593
vt 1.000000 0.666667
vt 1.000000 0.777778
vt 1.000000 0.777778
vt 0.215355 0.780100
vt 0.271780 0.270884
vt 0.271780 0.270884
vt 1.000000 0.444444
vt 1.000000 0.555556
vt 1.000000 0.555556
vt 0.950000 1.000000
vt 0.975000 1.000000
vt 0.975000 1.000000
vt 0.908333 1.000000
vt 0.908333 1.000000
vt 0.542547 0.834482
vt 0.488015 0.825418
vt 0.488015 0.825418
vt 0.000000 0.035714
vt 0.748729 0.427522
vt 0.669237 0.401416
vt 0.669237 0.401416
vt 0.000000 0.571429
vt 0.000000 0.714286
vt 1.000000 0.987654
vt 1.000000 0.993827
vt 1.000000 0.993827
vt 0.433483 0.816354
vt 1.000000 0.000000
vt 1.000000 0.111111
vt 1.000000 0.111111
vt 1.000000 0.222222
vt 1.000000 0.222222
vt 0.500000 0.000000
vt 0.375000 0.000000
vt 0.500000 0.000000
vt 1.000000 0.629630
vt 1.000000 0.666667
vt 0.000000 0.000000
vt 1.000000 0.333333
vt 1.000000 0.444444
vt 0.000000 0.107143
vt 0.000000 0.089286
vt 0.000000 0.065476
vt 0.000000 0.035714
vt 1.000000 0.925926
vt 1.000000 0.888889
vt 1.000000 0.907407
vt 0.983333 1.000000
vt 0.378951 0.807291
vt 0.378951 0.807291
vt 0.542547 0.834482
vt 0.706143 0.861672
vt 0.706143 0.861672
vt 0.916667 1.000000
vt 0.925000 1.000000
vt 0.925000 1.000000
vt 1.000000 0.907407
vt 0.250000 1.000000
vt 0.250000 1.000000
vt 1.000000 0.944444
vt 1.000000 0.944444
vt 1.000000 0.925926
vt 0.000000 0.125000
vt 1.000000 0.611112
vt 0.991667 1.000000
vt 0.000000 0.107143
vt 1.000000 0.948148
vt 1.000000 0.948148
vt 0.000000 0.059524
vt 0.900000 1.000000
vt 1.000000 0.987654
vt 0.950000 1.000000
vt 1.000000 0.629630
vt 0.250000 0.000000
vt 0.250000 0.000000
vt 0.589746 0.375310
vt 0.589746 0.375310
vt 0.215355 0.780100
vt 0.000000 0.053571
vt 0.000000 1.000000
vt 0.000000 0.857143
vt 0.000000 0.142857
vt 0.000000 0.142857
vt 0.625000 0.000000
vt 1.000000 0.888889
vt 0.430763 0.323097
vt 0.430763 0.323097
vt 0.351271 0.296990
vt 0.000000 0.053571
vt 0.875000 0.000000
vt 0.875000 0.000000
vt 0.991667 1.000000
vt 0.983333 1.000000
vt 1.000000 0.333333
vt 0.000000 0.125000
vt 0.351271 0.296990
vt 0.375000 0.000000
vt 1.000000 0.000000
vt 1.000000 0.962963
vt 0.748729 0.427522
vt 0.000000 0.428571
vt 1.000000 0.959259
vt 1.000000 0.955555
vt 1.000000 0.959259
vt 1.000000 0.951852
vt 1.000000 0.955555
vt 1.000000 0.951852
vt 0.215355 0.780100
vt 0.271780 0.270884
vt 0.433483 0.816354
vt 0.215355 0.780100
vt 0.271780 0.270884
vt 0.271780 0.270884
vt 0.271780 0.270884
vt 0.271780 0.270884
vt 0.271780 0.270884
vt 0.215355 0.780100
vt 0.271780 0.270884
vt 0.271780 0.270884
vt 0.215355 0.780100
vt 0.271780 0.270884
vt 0.271780 0.270884
vt 0.271780 0.270884
vt 0.271780 0.270884
vt 0.706143 0.861672
vt 0.748729 0.427522
vt 0.748729 0.427522
vt 0.706143 0.861672
vt 0.748729 0.427522
vt 0.669237 0.401416
vt 0.669237 0.401416
vt 0.542547 0.834482
vt 0.706143 0.861672
vt 0.706143 0.861672
vt 0.748729 0.427522
vt 0.542547 0.834482
vt 0.748729 0.427522
vt 0.669237 0.401416
vt 0.669237 0.401416
vt 0.748729 0.427522
vt 0.748729 0.427522
vt 0.669237 0.401416
vt 0.669237 0.401416
vt 0.748729 0.427522
vt 0.748729 0.427522
vt 0.669237 0.401416
vt 0.669237 0.401416
vt 0.748729 0.427522
vt 0.748729 0.427522
vt 0.669237 0.401416
vt 0.669237 0.401416
vt 0.748729 0.427522
vn -0.0000 1.0000 -0.0000
vn 1.0000 0.0000 -0.0000
vn 0.0000 0.0000 1.0000
vn -1.0000 0.0000 0.0000
vn -0.0000 -0.0000 -1.0000
vn 0.0000 0.7071 0.7071
vn 0.0000 0.7071 -0.7071
vn 0.7071 0.7071 0.0000
vn 0.9934 0.1145 -0.0000
vn 1.0000 -0.0000 -0.0025
vn 1.0000 0.0000 -0.0084
vn 1.0000 0.0000 -0.0053
vn -1.0000 0.0000 -0.0002
vn 1.0000 0.0000 -0.0008
usemtl None.001
s 1
f 1/1/1 2/2/1 3/3/1
f 4/4/2 5/5/2 6/6/2
f 7/7/3 8/8/3 9/9/3
f 10/10/4 11/11/4 12/12/4
f 1/1/3 13/13/3 14/14/3
f 15/15/5 16/16/5 2/2/5
f 17/17/4 18/18/4 19/19/4
f 20/20/5 21/21/5 22/22/5
f 23/23/1 24/24/1 25/25/1
f 26/26/4 27/27/4 28/28/4
f 29/29/3 30/30/3 31/31/3
f 32/32/3 33/33/3 34/34/3
f 35/35/5 36/36/5 37/37/5
f 38/38/2 39/39/2 40/40/2
f 41/41/3 42/42/3 43/43/3
f 44/44/5 45/45/5 46/46/5
f 47/47/4 6/6/4 48/48/4
f 49/49/4 50/50/4 51/51/4
f 52/52/6 15/15/7 1/1/8
f 53/53/5 54/54/5 55/55/5
f 56/56/4 25/25/4 57/57/4
f 58/58/5 59/59/5 60/60/5
f 61/61/3 51/51/3 50/50/3
f 24/24/5 57/57/5 25/25/5
f 62/62/3 63/63/3 64/64/3
f 64/64/4 65/65/4 66/66/4
f 67/67/2 68/68/2 69/69/2
f 70/70/2 71/71/2 35/35/2
f 52/52/4 72/72/4 29/29/4
f 41/41/2 73/73/2 74/74/2
f 75/75/4 76/76/4 15/15/4
f 3/3/5 14/14/5 77/77/5
f 78/78/4 15/15/4 76/76/4
f 79/79/1 80/80/1 81/81/1
f 82/82/4 46/46/4 45/45/4
f 83/83/2 61/61/2 84/84/2
f 85/85/3 86/86/3 87/87/3
f 88/88/5 89/89/5 90/90/5
f 80/80/3 91/91/3 81/81/3
f 12/12/5 92/92/5 93/93/5
f 79/79/5 94/94/5 95/95/5
f 96/96/2 81/81/2 91/91/2
f 19/19/1 97/97/1 75/75/1
f 98/98/1 43/43/1 32/32/1
f 99/99/2 60/60/2 59/59/2
f 41/41/9 98/98/9 37/37/9
f 97/97/3 100/100/3 75/75/3
f 43/43/2 34/34/2 32/32/2
f 95/95/10 101/101/10 102/102/10
f 103/103/1 52/52/1 1/1/1
f 93/93/2 22/22/2 21/21/2
f 18/18/4 75/75/4 19/19/4
f 104/104/5 48/48/5 47/47/5
f 58/58/2 8/8/2 105/105/2
f 106/106/2 90/90/2 89/89/2
f 98/98/5 107/107/5 33/33/5
f 31/31/4 108/108/4 109/109/4
f 55/55/4 110/110/4 111/111/4
f 112/112/3 83/83/3 84/84/3
f 113/113/3 78/78/3 52/52/3
f 114/114/4 115/115/4 24/24/4
f 19/19/5 116/116/5 117/117/5
f 67/67/3 118/118/3 26/26/3
f 115/115/4 17/17/4 24/24/4
f 37/37/2 74/74/2 36/36/2
f 94/94/11 80/80/11 119/119/11
f 111/111/5 120/120/5 121/121/5
f 122/122/5 40/40/5 39/39/5
f 103/103/4 123/123/4 113/113/4
f 58/58/1 7/7/1 9/9/1
f 28/28/3 124/124/3 125/125/3
f 2/2/4 77/77/4 3/3/4
f 126/126/5 127/127/5 82/82/5
f 66/66/3 73/73/3 128/128/3
f 80/80/2 36/36/2 119/119/2
f 129/129/4 117/117/4 116/116/4
f 122/122/2 120/120/2 130/130/2
f 109/109/3 68/68/3 131/131/3
f 132/132/2 125/125/2 124/124/2
f 60/60/12 133/133/12 59/59/12
f 60/60/1 50/50/1 87/87/1
f 6/6/1 50/50/1 106/106/1
f 87/87/13 134/134/13 53/53/13
f 23/23/3 135/135/3 17/17/3
f 37/37/1 70/70/1 35/35/1
f 136/136/10 133/133/10 7/7/10
f 136/136/5 137/137/5 138/138/5
f 139/139/14 137/137/14 140/140/14
f 102/102/3 141/141/3 139/139/3
f 112/112/5 38/38/5 142/142/5
f 40/40/3 39/39/3 143/143/3
f 1/1/1 15/15/1 2/2/1
f 4/4/2 88/88/2 5/5/2
f 7/7/3 133/133/3 8/8/3
f 10/10/4 104/104/4 11/11/4
f 1/1/3 103/103/3 13/13/3
f 15/15/5 76/76/5 16/16/5
f 17/17/4 135/135/4 18/18/4
f 20/20/5 114/114/5 21/21/5
f 23/23/1 17/17/1 24/24/1
f 26/26/4 118/118/4 27/27/4
f 29/29/3 72/72/3 30/30/3
f 32/32/3 98/98/3 33/33/3
f 35/35/5 71/71/5 36/36/5
f 38/38/2 112/112/2 39/39/2
f 41/41/3 74/74/3 42/42/3
f 44/44/5 106/106/5 45/45/5
f 47/47/4 4/4/4 6/6/4
f 49/49/4 85/85/4 50/50/4
f 53/53/5 134/134/5 54/54/5
f 56/56/4 23/23/4 25/25/4
f 58/58/5 105/105/5 59/59/5
f 61/61/3 144/144/3 51/51/3
f 24/24/5 115/115/5 57/57/5
f 62/62/3 132/132/3 63/63/3
f 64/64/4 63/63/4 65/65/4
f 67/67/2 131/131/2 68/68/2
f 70/70/2 107/107/2 71/71/2
f 52/52/4 78/78/4 72/72/4
f 41/41/2 128/128/2 73/73/2
f 75/75/4 100/100/4 76/76/4
f 3/3/5 1/1/5 14/14/5
f 78/78/4 52/52/4 15/15/4
f 79/79/1 95/95/1 80/80/1
f 82/82/4 127/127/4 46/46/4
f 83/83/2 144/144/2 61/61/2
f 85/85/3 49/49/3 86/86/3
f 88/88/5 5/5/5 89/89/5
f 80/80/3 119/119/3 91/91/3
f 12/12/5 11/11/5 92/92/5
f 79/79/5 96/96/5 94/94/5
f 96/96/2 79/79/2 81/81/2
f 19/19/1 117/117/1 97/97/1
f 98/98/1 41/41/1 43/43/1
f 99/99/2 126/126/2 60/60/2
f 97/97/3 129/129/3 100/100/3
f 43/43/2 42/42/2 34/34/2
f 95/95/10 94/94/10 101/101/10
f 103/103/1 113/113/1 52/52/1
f 93/93/2 92/92/2 22/22/2
f 18/18/4 100/100/4 75/75/4
f 104/104/5 10/10/5 48/48/5
f 58/58/2 9/9/2 8/8/2
f 106/106/2 44/44/2 90/90/2
f 98/98/5 70/70/5 107/107/5
f 31/31/4 30/30/4 108/108/4
f 55/55/4 54/54/4 110/110/4
f 112/112/3 38/38/3 83/83/3
f 113/113/3 123/123/3 78/78/3
f 114/114/4 20/20/4 115/115/4
f 19/19/5 18/18/5 116/116/5
f 67/67/3 69/69/3 118/118/3
f 115/115/4 135/135/4 17/17/4
f 37/37/2 41/41/2 74/74/2
f 94/94/11 95/95/11 80/80/11
f 111/111/5 110/110/5 120/120/5
f 122/122/5 130/130/5 40/40/5
f 103/103/4 13/13/4 123/123/4
f 58/58/1 60/60/1 7/7/1
f 28/28/3 27/27/3 124/124/3
f 2/2/4 16/16/4 77/77/4
f 126/126/5 99/99/5 127/127/5
f 66/66/3 65/65/3 73/73/3
f 80/80/2 37/37/2 36/36/2
f 129/129/4 97/97/4 117/117/4
f 122/122/2 121/121/2 120/120/2
f 109/109/3 108/108/3 68/68/3
f 132/132/2 62/62/2 125/125/2
f 60/60/12 7/7/12 133/133/12
f 21/21/1 114/114/1 93/93/1
f 114/114/1 24/24/1 93/93/1
f 17/17/1 19/19/1 112/112/1
f 19/19/1 75/75/1 112/112/1
f 112/112/1 93/93/1 17/17/1
f 24/24/1 17/17/1 93/93/1
f 75/75/1 15/15/1 112/112/1
f 15/15/1 52/52/1 39/39/1
f 93/93/1 112/112/1 12/12/1
f 48/48/1 10/10/1 12/12/1
f 52/52/1 29/29/1 31/31/1
f 39/39/1 52/52/1 67/67/1
f 6/6/1 48/48/1 12/12/1
f 112/112/1 84/84/1 61/61/1
f 61/61/1 6/6/1 12/12/1
f 52/52/1 31/31/1 67/67/1
f 31/31/1 109/109/1 131/131/1
f 31/31/1 131/131/1 67/67/1
f 112/112/1 61/61/1 12/12/1
f 121/121/1 122/122/1 39/39/1
f 39/39/1 112/112/1 15/15/1
f 26/26/1 28/28/1 111/111/1
f 28/28/1 125/125/1 111/111/1
f 67/67/1 26/26/1 39/39/1
f 125/125/1 62/62/1 111/111/1
f 64/64/1 66/66/1 128/128/1
f 62/62/1 64/64/1 53/53/1
f 111/111/1 62/62/1 53/53/1
f 64/64/1 128/128/1 41/41/1
f 37/37/1 80/80/1 53/53/1
f 80/80/1 95/95/1 87/87/1
f 53/53/1 80/80/1 87/87/1
f 64/64/1 41/41/1 53/53/1
f 41/41/1 37/37/1 53/53/1
f 121/121/1 39/39/1 26/26/1
f 53/53/1 55/55/1 111/111/1
f 111/111/1 121/121/1 26/26/1
f 102/102/1 139/139/1 140/140/1
f 95/95/1 102/102/1 87/87/1
f 102/102/1 140/140/1 136/136/1
f 50/50/1 85/85/1 87/87/1
f 136/136/1 7/7/1 87/87/1
f 7/7/1 60/60/1 87/87/1
f 87/87/1 102/102/1 136/136/1
f 6/6/1 61/61/1 50/50/1
f 50/50/1 60/60/1 45/45/1
f 60/60/1 126/126/1 45/45/1
f 126/126/1 82/82/1 45/45/1
f 106/106/1 89/89/1 5/5/1
f 106/106/1 5/5/1 6/6/1
f 50/50/1 45/45/1 106/106/1
f 87/87/13 86/86/13 134/134/13
f 23/23/3 56/56/3 135/135/3
f 37/37/1 98/98/1 70/70/1
f 136/136/10 138/138/10 133/133/10
f 136/136/5 140/140/5 137/137/5
f 139/139/14 141/141/14 137/137/14
f 102/102/3 101/101/3 141/141/3
f 112/112/5 142/142/5 145/145/5
f 40/40/3 143/143/3 146/146/3
f 147/147/3 148/148/3 149/149/3
f 147/147/3 149/149/3 150/150/3
f 151/151/2 152/152/2 153/153/2
f 151/151/2 154/154/2 152/152/2
f 155/155/5 156/156/5 157/157/5
f 155/155/5 158/158/5 156/156/5
f 159/159/13 160/160/13 161/161/13
f 159/159/13 162/162/13 160/160/13
f 163/163/5 164/164/5 165/165/5
f 166/166/3 167/167/3 168/168/3
f 163/163/5 169/169/5 164/164/5
f 166/166/3 170/170/3 167/167/3
f 171/171/5 172/172/5 173/173/5
f 171/171/5 174/174/5 172/172/5
f 175/175/3 176/176/3 177/177/3
f 175/175/3 177/177/3 178/178/3
f 179/179/5 180/180/5 181/181/5
f 179/179/5 182/182/5 180/180/5
f 183/183/3 184/184/3 185/185/3
f 183/183/3 185/185/3 186/186/3
